<svg width="402" height="360" viewBox="0 0 402 360" fill="none" xmlns="http://www.w3.org/2000/svg">
<mask id="mask0" mask-type="alpha" maskUnits="userSpaceOnUse" x="4" y="0" width="398" height="354">
<rect x="4" width="398" height="354" fill="black"/>
</mask>
<g mask="url(#mask0)">
<mask id="mask1" mask-type="alpha" maskUnits="userSpaceOnUse" x="5" y="0" width="397" height="354">
<path d="M168.859 20C184.255 -6.66665 222.745 -6.66667 238.141 20L396.191 293.75C411.587 320.417 392.342 353.75 361.55 353.75H45.4504C14.6584 353.75 -4.58666 320.417 10.8093 293.75L168.859 20Z" fill="#5D2CEA"/>
</mask>
<g mask="url(#mask1)">
<path d="M168.859 20C184.255 -6.66665 222.745 -6.66667 238.141 20L396.191 293.75C411.587 320.417 392.342 353.75 361.55 353.75H45.4504C14.6584 353.75 -4.58666 320.417 10.8093 293.75L168.859 20Z" fill="url(#paint0_linear)"/>
<path d="M18.646 255.703C-24.8409 346.65 93.1374 318.86 157.562 293.597L46.8319 219.138C55.5562 193.432 62.1329 164.756 18.646 255.703Z" fill="url(#paint1_radial)" fill-opacity="0.08"/>
<g filter="url(#filter0_d)">
<path d="M226.013 222.385C282.918 178.179 349.196 191.375 363.924 194.014L382 110.22L226.013 -0.625L90.1093 22.4678C67.7935 50.839 22.4924 130.542 19.8145 222.385C16.4672 337.19 144.337 312.777 167.768 283.087C186.514 259.334 214.408 232.722 226.013 222.385Z" fill="#3C3A4E"/>
</g>
<g filter="url(#filter1_i)">
<path d="M74.8111 178.122C75.6595 176.895 76.5559 175.718 77.5 174.594C76.8205 175.72 75.9101 176.901 74.8111 178.122C50.889 212.705 65.0405 286.187 120.812 290.75C144.609 292.697 163.354 284.162 178.517 272.703L205.388 247.164C213.381 238.453 219.996 230.989 225.812 227.75L205.388 247.164C197.827 255.402 189.034 264.756 178.517 272.703L159.531 290.75C132.625 311.094 76.1876 315.688 49.9375 296C6.40044 263.347 26.3126 218.562 26.3126 213.969C26.3126 210.594 62.4647 191.836 74.8111 178.122Z" fill="#585299"/>
</g>
<g filter="url(#filter2_d)">
<path d="M195.625 246.125C272.8 156.875 378.718 191 422.031 219.219L469.281 372.781C469.281 372.781 -60.3125 379.344 26.9687 362.938C114.25 346.531 118.45 335.375 195.625 246.125Z" fill="#8279E0"/>
</g>
<g filter="url(#filter3_d)">
<path d="M232.246 243.836C315.062 160.041 413.5 189.031 456.812 217.25L505.901 370.492C505.901 370.492 -23.692 377.055 63.5892 360.648C150.87 344.242 149.306 327.755 232.246 243.836Z" fill="#B7B0FF" fill-opacity="0.5"/>
</g>
<g filter="url(#filter4_i)">
<path d="M291.437 275C392.514 202.316 437.781 267.125 417.437 295.344L450.25 376.062C334.969 377.594 109.785 377.272 132.625 376.062C244.187 370.156 233.031 317 291.437 275Z" fill="url(#paint2_linear)"/>
</g>
<g filter="url(#filter5_i)">
<path d="M206.125 155.563C297.475 187.588 338.25 159.281 347.219 141.125L363.625 116.844L64.375 49.9062V201.5C73.5625 172.844 114.775 123.538 206.125 155.563Z" fill="#7E79C1"/>
</g>
<g filter="url(#filter6_d)">
<path d="M151.508 122.087C261.738 198.506 285.643 170.618 332.125 160.956L320.172 -46.5625L-171.875 94.418C-76.0331 81.0227 100.036 86.4024 151.508 122.087Z" fill="#9F97FF"/>
</g>
<g filter="url(#filter7_d)">
<path d="M166.75 94.5312C248.781 187.719 304.562 168.469 345.906 155.562L334.094 -108.25L-237.5 112.25C-121.125 73.0938 106.507 26.0946 166.75 94.5312Z" fill="#B5AEFF" fill-opacity="0.67"/>
</g>
<g filter="url(#filter8_d)">
<path d="M199.098 40.3977C239.406 157.821 298.314 161.292 341.455 165.122L431.113 -83.2686L-181.375 -97.3412C-58.8613 -89.1724 169.496 -45.8378 199.098 40.3977Z" fill="#B5AEFF" fill-opacity="0.88"/>
</g>
</g>
</g>
<defs>
<filter id="filter0_d" x="-24.25" y="-40.625" width="450.25" height="396.438" filterUnits="userSpaceOnUse" color-interpolation-filters="sRGB">
<feFlood flood-opacity="0" result="BackgroundImageFix"/>
<feColorMatrix in="SourceAlpha" type="matrix" values="0 0 0 0 0 0 0 0 0 0 0 0 0 0 0 0 0 0 127 0"/>
<feOffset dy="4"/>
<feGaussianBlur stdDeviation="22"/>
<feColorMatrix type="matrix" values="0 0 0 0 0 0 0 0 0 0 0 0 0 0 0 0 0 0 0.25 0"/>
<feBlend mode="normal" in2="BackgroundImageFix" result="effect1_dropShadow"/>
<feBlend mode="normal" in="SourceGraphic" in2="effect1_dropShadow" result="shape"/>
</filter>
<filter id="filter1_i" x="21.7681" y="168.594" width="214.044" height="140.018" filterUnits="userSpaceOnUse" color-interpolation-filters="sRGB">
<feFlood flood-opacity="0" result="BackgroundImageFix"/>
<feBlend mode="normal" in="SourceGraphic" in2="BackgroundImageFix" result="shape"/>
<feColorMatrix in="SourceAlpha" type="matrix" values="0 0 0 0 0 0 0 0 0 0 0 0 0 0 0 0 0 0 127 0" result="hardAlpha"/>
<feOffset dx="10" dy="-6"/>
<feGaussianBlur stdDeviation="12"/>
<feComposite in2="hardAlpha" operator="arithmetic" k2="-1" k3="1"/>
<feColorMatrix type="matrix" values="0 0 0 0 0 0 0 0 0 0 0 0 0 0 0 0 0 0 0.25 0"/>
<feBlend mode="normal" in2="shape" result="effect1_innerShadow"/>
</filter>
<filter id="filter2_d" x="-76.7455" y="98.58" width="640.026" height="373.498" filterUnits="userSpaceOnUse" color-interpolation-filters="sRGB">
<feFlood flood-opacity="0" result="BackgroundImageFix"/>
<feColorMatrix in="SourceAlpha" type="matrix" values="0 0 0 0 0 0 0 0 0 0 0 0 0 0 0 0 0 0 127 0"/>
<feOffset dy="4"/>
<feGaussianBlur stdDeviation="47"/>
<feColorMatrix type="matrix" values="0 0 0 0 0 0 0 0 0 0 0 0 0 0 0 0 0 0 0.25 0"/>
<feBlend mode="normal" in2="BackgroundImageFix" result="effect1_dropShadow"/>
<feBlend mode="normal" in="SourceGraphic" in2="effect1_dropShadow" result="shape"/>
</filter>
<filter id="filter3_d" x="19.875" y="158.533" width="520.026" height="251.255" filterUnits="userSpaceOnUse" color-interpolation-filters="sRGB">
<feFlood flood-opacity="0" result="BackgroundImageFix"/>
<feColorMatrix in="SourceAlpha" type="matrix" values="0 0 0 0 0 0 0 0 0 0 0 0 0 0 0 0 0 0 127 0"/>
<feOffset dy="4"/>
<feGaussianBlur stdDeviation="17"/>
<feColorMatrix type="matrix" values="0 0 0 0 0 0 0 0 0 0 0 0 0 0 0 0 0 0 0.4 0"/>
<feBlend mode="normal" in2="BackgroundImageFix" result="effect1_dropShadow"/>
<feBlend mode="normal" in="SourceGraphic" in2="effect1_dropShadow" result="shape"/>
</filter>
<filter id="filter4_i" x="131.011" y="241.698" width="319.239" height="139.396" filterUnits="userSpaceOnUse" color-interpolation-filters="sRGB">
<feFlood flood-opacity="0" result="BackgroundImageFix"/>
<feBlend mode="normal" in="SourceGraphic" in2="BackgroundImageFix" result="shape"/>
<feColorMatrix in="SourceAlpha" type="matrix" values="0 0 0 0 0 0 0 0 0 0 0 0 0 0 0 0 0 0 127 0" result="hardAlpha"/>
<feOffset dy="4"/>
<feGaussianBlur stdDeviation="17"/>
<feComposite in2="hardAlpha" operator="arithmetic" k2="-1" k3="1"/>
<feColorMatrix type="matrix" values="0 0 0 0 0 0 0 0 0 0 0 0 0 0 0 0 0 0 0.25 0"/>
<feBlend mode="normal" in2="shape" result="effect1_innerShadow"/>
</filter>
<filter id="filter5_i" x="64.375" y="49.9062" width="299.25" height="155.594" filterUnits="userSpaceOnUse" color-interpolation-filters="sRGB">
<feFlood flood-opacity="0" result="BackgroundImageFix"/>
<feBlend mode="normal" in="SourceGraphic" in2="BackgroundImageFix" result="shape"/>
<feColorMatrix in="SourceAlpha" type="matrix" values="0 0 0 0 0 0 0 0 0 0 0 0 0 0 0 0 0 0 127 0" result="hardAlpha"/>
<feOffset dy="4"/>
<feGaussianBlur stdDeviation="32"/>
<feComposite in2="hardAlpha" operator="arithmetic" k2="-1" k3="1"/>
<feColorMatrix type="matrix" values="0 0 0 0 0 0 0 0 0 0 0 0 0 0 0 0 0 0 0.25 0"/>
<feBlend mode="normal" in2="shape" result="effect1_innerShadow"/>
</filter>
<filter id="filter6_d" x="-225.875" y="-96.5625" width="612" height="328.5" filterUnits="userSpaceOnUse" color-interpolation-filters="sRGB">
<feFlood flood-opacity="0" result="BackgroundImageFix"/>
<feColorMatrix in="SourceAlpha" type="matrix" values="0 0 0 0 0 0 0 0 0 0 0 0 0 0 0 0 0 0 127 0"/>
<feOffset dy="4"/>
<feGaussianBlur stdDeviation="27"/>
<feColorMatrix type="matrix" values="0 0 0 0 0 0 0 0 0 0 0 0 0 0 0 0 0 0 0.25 0"/>
<feBlend mode="normal" in2="BackgroundImageFix" result="effect1_dropShadow"/>
<feBlend mode="normal" in="SourceGraphic" in2="effect1_dropShadow" result="shape"/>
</filter>
<filter id="filter7_d" x="-261.5" y="-128.25" width="631.406" height="322.762" filterUnits="userSpaceOnUse" color-interpolation-filters="sRGB">
<feFlood flood-opacity="0" result="BackgroundImageFix"/>
<feColorMatrix in="SourceAlpha" type="matrix" values="0 0 0 0 0 0 0 0 0 0 0 0 0 0 0 0 0 0 127 0"/>
<feOffset dy="4"/>
<feGaussianBlur stdDeviation="12"/>
<feColorMatrix type="matrix" values="0 0 0 0 0 0 0 0 0 0 0 0 0 0 0 0 0 0 0.25 0"/>
<feBlend mode="multiply" in2="BackgroundImageFix" result="effect1_dropShadow"/>
<feBlend mode="normal" in="SourceGraphic" in2="effect1_dropShadow" result="shape"/>
</filter>
<filter id="filter8_d" x="-205.375" y="-117.341" width="660.488" height="310.464" filterUnits="userSpaceOnUse" color-interpolation-filters="sRGB">
<feFlood flood-opacity="0" result="BackgroundImageFix"/>
<feColorMatrix in="SourceAlpha" type="matrix" values="0 0 0 0 0 0 0 0 0 0 0 0 0 0 0 0 0 0 127 0"/>
<feOffset dy="4"/>
<feGaussianBlur stdDeviation="12"/>
<feColorMatrix type="matrix" values="0 0 0 0 0 0 0 0 0 0 0 0 0 0 0 0 0 0 0.25 0"/>
<feBlend mode="multiply" in2="BackgroundImageFix" result="effect1_dropShadow"/>
<feBlend mode="normal" in="SourceGraphic" in2="effect1_dropShadow" result="shape"/>
</filter>
<linearGradient id="paint0_linear" x1="-28.8125" y1="250.062" x2="168.063" y2="374.75" gradientUnits="userSpaceOnUse">
<stop stop-color="#8F85FF"/>
<stop offset="1" stop-color="#37326C"/>
</linearGradient>
<radialGradient id="paint1_radial" cx="0" cy="0" r="1" gradientUnits="userSpaceOnUse" gradientTransform="translate(70.2813 275.656) rotate(72.8973) scale(44.6298 53.086)">
<stop stop-color="#3E3D4B"/>
<stop offset="1" stop-color="#151236" stop-opacity="0"/>
</radialGradient>
<linearGradient id="paint2_linear" x1="296.688" y1="276.969" x2="546.062" y2="431.188" gradientUnits="userSpaceOnUse">
<stop stop-color="#3B394C"/>
<stop offset="1" stop-color="#6C60FA"/>
</linearGradient>
</defs>
</svg>
